<svg id="o6E65-22R" viewBox="0 0 370.00000000000006 75.61342246379941" height="75.61342246379941" width="370.00000000000006" style="width: 370px; height: 75.6134px; position: absolute; top: 50%; left: 50%; z-index: 0; cursor: pointer; transform: translate(-50%, -50%) scale(0.512973);"><defs id="SvgjsDefs1141"></defs><g id="SvgjsG1142" featurekey="symbolFeature-0" transform="matrix(22.364218138231138,0,0,22.364218138231138,-20.932909275785637,-18.115016745287672)" fill="#ffd460"><g xmlns="http://www.w3.org/2000/svg"><g><polygon fill="#ffd460" points="2.107,4.191 2.789,4.191 4.066,3.203 4.066,1.564 3.217,0.81 1.725,2.129 1.725,2.705     2.059,3.001 2.434,2.668 2.25,2.507 2.25,2.282 3.236,1.411 3.576,1.712 3.576,3.027   "></polygon></g><g><polygon fill="#ffd460" points="2.893,0.81 2.211,0.81 0.936,1.798 0.936,3.437 1.785,4.191 3.275,2.87 3.275,2.295 2.941,1.999     2.568,2.332 2.75,2.493 2.75,2.718 1.764,3.589 1.426,3.29 1.426,1.972   "></polygon></g></g></g><g id="SvgjsG1143" featurekey="nameFeature-0" transform="matrix(1.170843134183462,0,0,1.170843134183462,86.65548641301487,-10.380285320785696)" fill="#ffd460"><path d="M2.8571 40 l0 -28.571 l20.857 0 l4.2857 4.2857 l0 12 l-4.2857 4.2857 l-13.429 0 l0 8 l-7.4286 0 z M10.286 25.714 l10.286 0 l0 -8 l-10.286 0 l0 8 z M58.00014285714286 17.714 l-16.857 0 l0 4.8571 l14.571 0 l0 6.2857 l-14.571 0 l0 4.8571 l16.857 0 l0 6.2857 l-20 0 l-4.2857 -4.2857 l0 -24.286 l24.286 0 l0 6.2857 z M89.42814285714286 15.713999999999999 l0 10 l-4.2857 4.2857 l4.2857 6.5714 l0 3.4286 l-6.8571 0 l-5.9429 -9.7143 l-5.4857 0 l0 9.7143 l-7.4286 0 l0 -28.571 l21.429 0 z M82.00014285714286 24 l0 -6.2857 l-10.857 0 l0 6.2857 l10.857 0 z M113.14271428571429 17.714 l-10.571 0 l0 4.8571 l14 0 l4.2857 4.2857 l0 8.8571 l-4.2857 4.2857 l-17.143 0 l-4.2857 -4.2857 l0 -4.2857 l5.4286 0 l2.2857 2.2857 l10.571 0 l0 -4.8571 l-14 0 l-4.2857 -4.2857 l0 -8.8571 l4.2857 -4.2857 l17.143 0 l4.2857 4.2857 l0 4.2857 l-5.4286 0 z M147.42828571428572 11.428999999999998 l4.2857 4.2857 l0 20 l-4.2857 4.2857 l-16.571 0 l-4.2857 -4.2857 l0 -20 l4.2857 -4.2857 l16.571 0 z M144.28528571428572 33.7143 l0 -16 l-10.286 0 l0 16 l10.286 0 z M175.14242857142858 11.428999999999998 l7.4286 0 l0 28.571 l-6.5714 0 l-11.143 -16 l0 16 l-7.4286 0 l0 -28.571 l6.5714 0 l11.143 15.886 l0 -15.886 z M188.28567142857145 40 l0 -24.286 l4.2857 -4.2857 l16.571 0 l4.2857 4.2857 l0 24.286 l-7.4286 0 l0 -8 l-10.286 0 l0 8 l-7.4286 0 z M195.71457142857145 25.714 l10.286 0 l0 -8 l-10.286 0 l0 8 z M219.1428142857143 35.7143 l0 -24.286 l7.4286 0 l0 22.286 l15.429 0 l0 6.2857 l-18.571 0 z"></path></g><g id="SvgjsG1144" featurekey="nameFeature-1" transform="matrix(0.9193258279933344,0,0,0.9193258279933344,88.16134856319769,35.49403082087773)" fill="#ffd460"><path d="M2 40 l0 -5.7143 l2.2857 0 l0 -17.143 l-2.2857 0 l0 -5.7143 l12 0 l0 5.7143 l-2.2857 0 l0 17.143 l2.2857 0 l0 5.7143 l-12 0 z M36.571 11.428999999999998 l7.4286 0 l0 28.571 l-6.5714 0 l-11.143 -16 l0 16 l-7.4286 0 l0 -28.571 l6.5714 0 l11.143 15.886 l0 -15.886 z M47.71428285714286 17.714 l0 -6.2857 l24.286 0 l0 6.2857 l-8.4571 0 l0 22.286 l-7.4286 0 l0 -22.286 l-8.4 0 z M100.00014285714286 17.714 l-16.857 0 l0 4.8571 l14.571 0 l0 6.2857 l-14.571 0 l0 4.8571 l16.857 0 l0 6.2857 l-20 0 l-4.2857 -4.2857 l0 -24.286 l24.286 0 l0 6.2857 z M131.42814285714286 15.713999999999999 l0 10 l-4.2857 4.2857 l4.2857 6.5714 l0 3.4286 l-6.8571 0 l-5.9429 -9.7143 l-5.4857 0 l0 9.7143 l-7.4286 0 l0 -28.571 l21.429 0 z M124.00014285714286 24 l0 -6.2857 l-10.857 0 l0 6.2857 l10.857 0 z M155.71471428571428 11.428999999999998 l6.8571 0 l0 3.4286 l-9.5429 25.143 l-7.7143 0 l-9.6 -25.143 l0 -3.4286 l6.8571 0 l6.5714 18.571 z M166 40 l0 -5.7143 l2.2857 0 l0 -17.143 l-2.2857 0 l0 -5.7143 l12 0 l0 5.7143 l-2.2857 0 l0 17.143 l2.2857 0 l0 5.7143 l-12 0 z M207.143 17.714 l-16.857 0 l0 4.8571 l14.571 0 l0 6.2857 l-14.571 0 l0 4.8571 l16.857 0 l0 6.2857 l-20 0 l-4.2857 -4.2857 l0 -24.286 l24.286 0 l0 6.2857 z M239.714 11.428999999999998 l6.8571 0 l0 3.4286 l-6.9714 25.143 l-6.8571 0 l-3.7143 -13.486 l-3.7143 13.486 l-6.8571 0 l-7.0286 -25.143 l0 -3.4286 l6.8571 0 l4.1714 16.914 l4.1143 -16.914 l4.8571 0 l4.1714 16.914 z M275.14300000000003 17.714 l-16.857 0 l0 4.8571 l14.571 0 l0 6.2857 l-14.571 0 l0 4.8571 l16.857 0 l0 6.2857 l-20 0 l-4.2857 -4.2857 l0 -24.286 l24.286 0 l0 6.2857 z M306.571 15.713999999999999 l0 10 l-4.2857 4.2857 l4.2857 6.5714 l0 3.4286 l-6.8571 0 l-5.9429 -9.7143 l-5.4857 0 l0 9.7143 l-7.4286 0 l0 -28.571 l21.429 0 z M299.14300000000003 24 l0 -6.2857 l-10.857 0 l0 6.2857 l10.857 0 z"></path></g></svg>