<svg width="100" height="100" viewBox="0 0 100 100" fill="none" xmlns="http://www.w3.org/2000/svg">
<rect width="100" height="100" rx="10" fill="#F46A3B"/>
<path d="M57.7812 40.5312C57.7604 42.3229 57.5833 43.9271 57.25 45.3438C56.9375 46.7604 56.4792 48.0417 55.875 49.1875C55.2917 50.3125 54.5729 51.3333 53.7188 52.25C52.8854 53.1458 51.9271 53.9896 50.8438 54.7812C48.7604 56.2812 46.4792 57.4167 44 58.1875C41.5208 58.9375 39.0312 59.3125 36.5312 59.3125C36.1146 59.3125 35.6979 59.3021 35.2812 59.2812C34.8854 59.2604 34.4792 59.2292 34.0625 59.1875L33.0312 70.5938L32.5 71.5625C32.4583 71.6458 32.1042 71.8125 31.4375 72.0625C30.7708 72.3125 29.9375 72.6042 28.9375 72.9375L26.9688 73.5938C26.3438 73.8229 25.7917 74.0312 25.3125 74.2188C24.8333 74.4062 24.3854 74.5729 23.9688 74.7188C23.5521 74.8646 23.1458 74.9688 22.75 75.0312C22.3542 75.1146 21.9375 75.1562 21.5 75.1562C21.2083 75.1562 20.9792 75.0833 20.8125 74.9375C20.6458 74.7917 20.5625 74.5104 20.5625 74.0938L20.9062 68.75C20.9688 67.6875 21.0417 66.625 21.125 65.5625C21.2292 64.4792 21.3229 63.25 21.4062 61.875L22 54.4062C22.125 52.8854 22.2396 51.3646 22.3438 49.8438C22.4479 48.3229 22.5521 46.875 22.6562 45.5C22.7604 44.125 22.8542 42.8438 22.9375 41.6562C23.0208 40.4479 23.0938 39.3958 23.1562 38.5C22.0312 38.75 21.125 38.9375 20.4375 39.0625C19.7708 39.1667 19.2604 39.2188 18.9062 39.2188C18.4688 39.2188 18.25 39.0312 18.25 38.6562C18.5417 37.6354 18.8125 36.6354 19.0625 35.6562C19.2917 34.8229 19.5208 33.9688 19.75 33.0938C20 32.1979 20.2083 31.4479 20.375 30.8438C20.4792 30.4688 20.5938 30.1875 20.7188 30C20.8646 29.7917 21.0417 29.6354 21.25 29.5312C21.4792 29.4062 21.7604 29.3021 22.0938 29.2188C22.4479 29.1146 22.875 28.9792 23.375 28.8125C23.7708 28.6875 24.3229 28.5521 25.0312 28.4062C25.7604 28.2396 26.5833 28.0833 27.5 27.9375C28.4375 27.7708 29.4479 27.6146 30.5312 27.4688C31.6146 27.3229 32.7083 27.1979 33.8125 27.0938C34.9375 26.9688 36.0417 26.875 37.125 26.8125C38.2083 26.7292 39.2292 26.6875 40.1875 26.6875C42.5625 26.6875 44.8125 26.9062 46.9375 27.3438C49.0625 27.7812 50.9271 28.5312 52.5312 29.5938C54.1354 30.6354 55.4062 32.0521 56.3438 33.8438C57.3021 35.6146 57.7812 37.8438 57.7812 40.5312ZM34.9375 49.9062C34.9375 50.1354 34.9792 50.3438 35.0625 50.5312C35.1458 50.6979 35.375 50.7812 35.75 50.7812C36.3333 50.7812 37.0208 50.6562 37.8125 50.4062C38.625 50.1354 39.4271 49.7396 40.2188 49.2188C41.0312 48.6979 41.7812 48.0521 42.4688 47.2812C43.1562 46.5104 43.6771 45.6042 44.0312 44.5625C44.1771 44.1458 44.2917 43.6146 44.375 42.9688C44.4792 42.3229 44.5312 41.5625 44.5312 40.6875C44.5312 39.2292 44.0208 38.1562 43 37.4688C42 36.7812 40.6875 36.4375 39.0625 36.4375C38.7917 36.4375 38.4792 36.4583 38.125 36.5C37.7917 36.5208 37.4688 36.5729 37.1562 36.6562C36.8646 36.7396 36.6146 36.8438 36.4062 36.9688C36.1979 37.0729 36.0833 37.2188 36.0625 37.4062L36 38.0938C35.9792 38.3646 35.9375 38.8125 35.875 39.4375C35.8125 40.0417 35.7396 40.7396 35.6562 41.5312C35.5938 42.3229 35.5208 43.1562 35.4375 44.0312C35.375 44.9062 35.3021 45.7396 35.2188 46.5312C35.1562 47.3229 35.0938 48.0208 35.0312 48.625C34.9896 49.2292 34.9583 49.6562 34.9375 49.9062Z" fill="white"/>
<g clip-path="url(#clip0_7431_198)">
<path d="M70.758 70.0442L70.7396 70.0445L70.6774 74.9617L72.5 74.9386L72.5623 70.0214L70.7685 70.0442L70.758 70.0442Z" fill="white"/>
<path d="M72.2371 23.7214C67.2754 23.7842 63.2005 27.859 63.1377 32.8208C63.106 35.331 64.1074 37.5929 65.7518 39.199L78.3326 39.0398C80.0183 37.3915 81.0772 35.1035 81.109 32.5932C81.1718 27.6316 77.1988 23.6585 72.2371 23.7214ZM67.0153 30.1655C67.0313 28.9052 68.066 27.8705 69.3264 27.8547C70.5866 27.8387 71.5954 28.8475 71.5794 30.1077C71.5634 31.368 70.529 32.4027 69.2685 32.4186C68.0082 32.4346 66.9995 31.4259 67.0153 30.1655Z" fill="white"/>
<path d="M66.9948 41.1297L66.6789 41.1332L66.6789 41.1338L66.6605 41.134L67.3837 65.841C67.3807 66.0756 68.1968 66.2705 69.4212 66.3704L69.3978 68.2179C69.394 68.5102 69.6278 68.7441 69.9202 68.7403L73.4149 68.6961C73.7073 68.6924 73.9472 68.4525 73.9508 68.1602L73.9743 66.3129C75.2025 66.182 76.0243 65.9664 76.0275 65.7317C76.0274 65.7301 76.0261 65.7286 76.0261 65.7272L77.3344 41.7419L77.3745 41.0168L77.374 41.0169L77.375 40.9984L66.9948 41.1297ZM72.8302 48.8486L71.0077 48.8717L71.0699 43.9546L72.8925 43.9315L72.8303 48.8385L72.8302 48.8486Z" fill="white"/>
</g>
<defs>
<clipPath id="clip0_7431_198">
<rect width="40" height="39" fill="white" transform="translate(44 48.2843) rotate(-45)"/>
</clipPath>
</defs>
</svg>
